<svg width="22" height="22" viewBox="0 0 22 22" fill="none" xmlns="http://www.w3.org/2000/svg">
<mask id="mask0_39_181" style="mask-type:alpha" maskUnits="userSpaceOnUse" x="0" y="0" width="22" height="22">
<rect width="22" height="22" fill="#D9D9D9"/>
</mask>
<g mask="url(#mask0_39_181)">
<path d="M5.38682 15.675C6.16781 15.0792 7.04069 14.6094 8.00545 14.2656C8.97021 13.9219 9.98091 13.75 11.0375 13.75C12.0942 13.75 13.1049 13.9219 14.0697 14.2656C15.0344 14.6094 15.9073 15.0792 16.6883 15.675C17.2243 15.0486 17.6416 14.3382 17.9402 13.5438C18.2388 12.7493 18.3881 11.9014 18.3881 11C18.3881 8.96807 17.6722 7.23786 16.2404 5.80939C14.8085 4.38091 13.0743 3.66668 11.0375 3.66668C9.00084 3.66668 7.26657 4.38091 5.83474 5.80939C4.40292 7.23786 3.687 8.96807 3.687 11C3.687 11.9014 3.83631 12.7493 4.13493 13.5438C4.43354 14.3382 4.85084 15.0486 5.38682 15.675ZM11.0375 11.9167C10.134 11.9167 9.37219 11.6073 8.75199 10.9886C8.13179 10.3698 7.82169 9.60973 7.82169 8.70834C7.82169 7.80695 8.13179 7.04689 8.75199 6.42814C9.37219 5.80939 10.134 5.50001 11.0375 5.50001C11.9411 5.50001 12.7029 5.80939 13.3231 6.42814C13.9433 7.04689 14.2534 7.80695 14.2534 8.70834C14.2534 9.60973 13.9433 10.3698 13.3231 10.9886C12.7029 11.6073 11.9411 11.9167 11.0375 11.9167ZM11.0375 20.1667C9.76652 20.1667 8.57205 19.9261 7.45416 19.4448C6.33626 18.9636 5.36385 18.3104 4.53691 17.4854C3.70997 16.6604 3.05531 15.6903 2.57293 14.575C2.09056 13.4597 1.84937 12.2681 1.84937 11C1.84937 9.73195 2.09056 8.54029 2.57293 7.42501C3.05531 6.30973 3.70997 5.33959 4.53691 4.51459C5.36385 3.68959 6.33626 3.03647 7.45416 2.55522C8.57205 2.07397 9.76652 1.83334 11.0375 1.83334C12.3086 1.83334 13.503 2.07397 14.6209 2.55522C15.7388 3.03647 16.7113 3.68959 17.5382 4.51459C18.3651 5.33959 19.0198 6.30973 19.5022 7.42501C19.9845 8.54029 20.2257 9.73195 20.2257 11C20.2257 12.2681 19.9845 13.4597 19.5022 14.575C19.0198 15.6903 18.3651 16.6604 17.5382 17.4854C16.7113 18.3104 15.7388 18.9636 14.6209 19.4448C13.503 19.9261 12.3086 20.1667 11.0375 20.1667ZM11.0375 18.3333C11.8492 18.3333 12.6149 18.2149 13.3346 17.9781C14.0543 17.7413 14.7128 17.4014 15.3101 16.9583C14.7128 16.5153 14.0543 16.1754 13.3346 15.9386C12.6149 15.7017 11.8492 15.5833 11.0375 15.5833C10.2259 15.5833 9.46025 15.7017 8.7405 15.9386C8.02076 16.1754 7.36228 16.5153 6.76504 16.9583C7.36228 17.4014 8.02076 17.7413 8.7405 17.9781C9.46025 18.2149 10.2259 18.3333 11.0375 18.3333ZM11.0375 10.0833C11.4357 10.0833 11.7649 9.95348 12.0253 9.69376C12.2856 9.43404 12.4158 9.10557 12.4158 8.70834C12.4158 8.31112 12.2856 7.98265 12.0253 7.72293C11.7649 7.4632 11.4357 7.33334 11.0375 7.33334C10.6394 7.33334 10.3102 7.4632 10.0498 7.72293C9.78949 7.98265 9.65932 8.31112 9.65932 8.70834C9.65932 9.10557 9.78949 9.43404 10.0498 9.69376C10.3102 9.95348 10.6394 10.0833 11.0375 10.0833Z" fill="#9D9D9D"/>
</g>
</svg>
