<svg width="23" height="18" viewBox="0 0 23 18" fill="none" xmlns="http://www.w3.org/2000/svg">
<path d="M11.9884 14.0624C14.5957 14.0624 16.7063 11.9984 16.9006 9.38285L20.5065 6.53276C20.9805 7.14096 21.4167 7.78396 21.7687 8.48708C21.8474 8.64616 21.8883 8.82192 21.8883 9.00018C21.8883 9.17843 21.8474 9.35419 21.7687 9.51328C19.9046 13.2331 16.2141 15.7499 11.9884 15.7499C11.0634 15.7499 10.171 15.6093 9.31093 15.3822L11.0946 13.9707C11.3892 14.0289 11.6884 14.0596 11.9884 14.0624ZM1.20086 16.105L5.001 13.1013C3.84663 12.1063 2.89724 10.8866 2.20804 9.51292C2.12941 9.35384 2.08844 9.17808 2.08844 8.99982C2.08844 8.82157 2.12941 8.64581 2.20804 8.48672C4.07219 4.76688 7.76268 2.25007 11.9884 2.25007C13.7582 2.25226 15.4992 2.70793 17.0525 3.57545L21.4257 0.118568C21.4827 0.073184 21.5479 0.0397377 21.6176 0.02014C21.6873 0.000542203 21.76 -0.00482287 21.8317 0.00435132C21.9034 0.0135255 21.9726 0.0370592 22.0354 0.0736074C22.0983 0.110156 22.1534 0.159002 22.1977 0.217356L22.8725 1.10574C22.962 1.22351 23.0021 1.37282 22.984 1.52083C22.9659 1.66884 22.8911 1.80342 22.7759 1.89499L2.5511 17.8814C2.49408 17.9268 2.42886 17.9603 2.35919 17.9799C2.28952 17.9995 2.21676 18.0048 2.14506 17.9956C2.07336 17.9865 2.00413 17.9629 1.94133 17.9264C1.87852 17.8898 1.82338 17.841 1.77904 17.7826L1.10392 16.8943C1.01444 16.7764 0.974392 16.6271 0.992571 16.4791C1.01075 16.3311 1.08567 16.1965 1.20086 16.105ZM7.51621 11.1129L8.86715 10.0448C8.75338 9.70856 8.69303 9.35581 8.6884 9C8.68169 8.47908 8.79453 7.96381 9.01786 7.49559C9.24119 7.02736 9.56878 6.61923 9.97431 6.30397C10.3798 5.98871 10.852 5.77512 11.3529 5.68035C11.8538 5.58558 12.3694 5.61227 12.8584 5.75828C12.6511 6.04553 12.539 6.39301 12.5384 6.75002C12.5435 6.86883 12.5613 6.98671 12.5913 7.10158L15.1217 5.10156C14.2427 4.35035 13.1339 3.93842 11.9884 3.93755C11.3382 3.93718 10.6944 4.06787 10.0937 4.32215C9.49296 4.57644 8.94713 4.94932 8.48741 5.41948C8.02769 5.88965 7.6631 6.44788 7.41446 7.06225C7.16583 7.67662 7.03804 8.33509 7.0384 9C7.0384 9.76042 7.22025 10.4692 7.51621 11.1132V11.1129Z" fill="#C5C5C5"/>
</svg>
