<svg width="22" height="22" viewBox="0 0 22 22" fill="none" xmlns="http://www.w3.org/2000/svg">
<mask id="mask0_39_191" style="mask-type:alpha" maskUnits="userSpaceOnUse" x="0" y="0" width="22" height="22">
<rect width="22" height="22" fill="#D9D9D9"/>
</mask>
<g mask="url(#mask0_39_191)">
<path d="M3.687 18.3333C3.18165 18.3333 2.74904 18.1538 2.38917 17.7948C2.0293 17.4358 1.84937 17.0042 1.84937 16.5V5.49999C1.84937 4.99582 2.0293 4.56423 2.38917 4.2052C2.74904 3.84617 3.18165 3.66666 3.687 3.66666H18.3881C18.8934 3.66666 19.3261 3.84617 19.6859 4.2052C20.0458 4.56423 20.2257 4.99582 20.2257 5.49999V16.5C20.2257 17.0042 20.0458 17.4358 19.6859 17.7948C19.3261 18.1538 18.8934 18.3333 18.3881 18.3333H3.687ZM11.0375 11.9167L3.687 7.33332V16.5H18.3881V7.33332L11.0375 11.9167ZM11.0375 10.0833L18.3881 5.49999H3.687L11.0375 10.0833ZM3.687 7.33332V5.49999V16.5V7.33332Z" fill="#9D9D9D"/>
</g>
</svg>
